<?xml version="1.0" standalone="no"?>
<!DOCTYPE svg PUBLIC "-//W3C//DTD SVG 20010904//EN"
 "http://www.w3.org/TR/2001/REC-SVG-20010904/DTD/svg10.dtd">
<svg version="1.0" xmlns="http://www.w3.org/2000/svg"
 width="1047.000000pt" height="1047.000000pt" viewBox="0 0 1047.000000 1047.000000"
 preserveAspectRatio="xMidYMid meet">
<metadata>
Created by potrace 1.11, written by Peter Selinger 2001-2013
</metadata>
<g transform="translate(0.000000,1047.000000) scale(0.100000,-0.100000)"
fill="#000000" stroke="none">
<path d="M9090 10459 c-19 -5 -44 -11 -55 -13 -26 -6 -121 -40 -160 -57 -52
-23 -137 -79 -225 -149 -108 -85 -245 -181 -290 -202 -58 -27 -139 -37 -265
-33 -66 2 -131 6 -145 9 -14 2 -44 7 -68 10 -54 7 -212 34 -287 50 -20 4 -306
74 -335 81 -8 3 -33 9 -55 15 -64 17 -193 12 -281 -10 -166 -43 -287 -123
-319 -213 -56 -158 -156 -159 -415 -3 -74 45 -139 83 -145 85 -5 2 -22 12 -36
22 -14 10 -110 65 -213 123 -137 76 -193 113 -207 135 -24 41 -53 57 -124 73
-80 17 -302 13 -406 -7 -23 -5 -40 -8 -119 -22 -106 -18 -163 -33 -210 -55
-71 -34 -187 -119 -287 -211 l-91 -85 -127 -42 c-144 -46 -259 -76 -395 -100
-132 -23 -231 -31 -559 -45 -68 -3 -134 -7 -145 -10 -12 -2 -41 -7 -66 -10
-25 -2 -95 -14 -157 -26 -107 -20 -113 -22 -166 -70 -185 -165 -233 -427 -115
-629 43 -74 98 -255 114 -375 3 -27 8 -59 10 -70 27 -145 23 -515 -8 -595 -5
-14 -9 -27 -9 -30 3 -23 -35 -103 -69 -143 -33 -39 -189 -60 -320 -43 -383 51
-683 269 -823 596 -43 101 -61 166 -87 319 -26 151 -137 261 -237 236 -23 -5
-72 -49 -109 -97 -17 -21 -61 -147 -68 -192 -4 -21 -8 -41 -10 -45 -21 -34
-25 -459 -6 -612 95 -766 464 -1253 1040 -1373 118 -25 128 -26 250 -32 63 -3
127 -10 142 -16 82 -31 66 -188 -33 -338 -79 -117 -224 -222 -346 -251 -90
-21 -118 -23 -253 -24 -172 0 -230 8 -540 80 -197 46 -275 33 -320 -54 -80
-158 139 -432 615 -772 50 -35 93 -68 97 -73 17 -24 -14 -87 -110 -224 -94
-135 -97 -141 -127 -213 -14 -35 -30 -73 -35 -84 -16 -36 -41 -99 -67 -170
-24 -66 -26 -83 -28 -275 -2 -113 -5 -223 -8 -245 -13 -89 -19 -119 -28 -142
-5 -13 -7 -23 -4 -23 17 0 -73 -171 -159 -299 -57 -86 -109 -174 -116 -195 -9
-28 -10 -64 -5 -125 4 -47 9 -99 10 -116 3 -36 -19 -93 -43 -112 -9 -7 -54
-36 -99 -64 -94 -57 -136 -103 -159 -172 -41 -123 -4 -200 146 -308 212 -153
257 -336 175 -719 -3 -14 -6 -50 -6 -81 -1 -78 25 -125 91 -159 39 -21 164
-15 245 11 73 23 129 27 205 16 25 -3 72 -9 105 -13 33 -3 72 -7 86 -9 36 -4
283 -16 399 -19 85 -2 102 -6 163 -37 119 -59 342 -240 419 -339 123 -159 151
-191 180 -213 45 -33 85 -45 140 -42 101 7 165 60 237 197 92 172 156 248 213
248 81 0 206 -141 403 -450 102 -162 147 -224 204 -283 72 -75 121 -96 175
-73 62 26 113 120 206 376 55 153 96 236 139 283 41 45 71 56 137 51 94 -7
175 -39 239 -95 32 -29 155 -182 155 -194 0 -6 60 -93 100 -145 40 -52 94
-153 135 -255 72 -175 107 -215 198 -220 165 -9 244 125 337 571 23 109 46
213 51 230 5 17 12 42 14 54 16 81 90 270 107 270 4 0 8 5 8 10 0 19 55 72 94
92 81 41 176 13 351 -104 191 -129 458 -388 609 -593 17 -22 33 -42 36 -45 10
-8 164 -241 202 -305 43 -71 67 -115 121 -215 58 -108 96 -157 143 -180 90
-44 177 -10 226 90 84 172 47 329 -193 817 -54 111 -99 212 -99 226 0 49 63
78 170 78 70 -1 82 -3 150 -21 76 -21 117 -48 171 -113 137 -166 196 -207 289
-203 101 5 160 50 160 122 0 30 -56 154 -71 154 -5 0 -9 6 -9 13 0 21 -190
198 -265 248 -39 25 -101 66 -140 91 -38 25 -126 92 -195 148 -69 57 -160 126
-203 153 -82 52 -99 78 -79 122 17 37 59 53 139 53 88 0 166 -16 307 -63 120
-40 149 -53 216 -99 91 -63 313 -239 425 -337 151 -133 155 -136 215 -138 299
-11 232 214 -192 650 -118 121 -160 150 -423 290 -216 114 -353 210 -391 275
-29 50 -30 68 -3 93 17 15 32 19 73 15 93 -7 287 -81 446 -171 91 -52 173
-100 194 -115 6 -5 54 -38 106 -75 52 -36 154 -110 225 -163 296 -219 381
-264 432 -232 15 9 33 56 33 85 0 34 -42 115 -96 187 -52 68 -257 277 -365
371 -132 115 -268 229 -414 346 -157 126 -218 187 -290 288 -139 194 -219 408
-250 665 -3 25 -7 56 -9 70 -3 14 -7 51 -10 83 -8 75 -17 163 -21 207 -9 80
-18 293 -18 405 0 182 14 288 47 354 37 76 98 94 222 66 77 -17 269 -107 429
-201 l100 -58 121 -2 c291 -4 440 -40 729 -179 143 -68 212 -81 257 -46 40 32
44 71 14 137 -28 61 -123 163 -216 231 -127 92 -348 214 -560 308 -47 21 -103
46 -126 56 -301 134 -563 668 -728 1484 -24 118 -63 338 -90 513 -7 41 -25
171 -31 222 -3 25 -7 61 -10 80 -8 61 -14 114 -20 165 -8 84 -17 159 -21 177
-8 49 -18 180 -16 233 7 191 163 680 338 1063 19 41 34 75 34 78 0 12 160 331
208 414 99 172 132 205 253 253 57 23 270 76 364 90 107 17 175 43 209 81 57
64 68 167 25 231 -38 54 -99 79 -199 81 -47 1 -101 -2 -120 -7z"/>
</g>
</svg>
