<?xml version="1.0" encoding="utf-8"?>
<!-- Generator: Adobe Illustrator 22.0.1, SVG Export Plug-In . SVG Version: 6.00 Build 0)  -->
<svg version="1.1" id="Layer_1" xmlns="http://www.w3.org/2000/svg" xmlns:xlink="http://www.w3.org/1999/xlink" x="0px" y="0px"
	 viewBox="0 0 235.4 265.1" style="enable-background:new 0 0 235.4 265.1;" xml:space="preserve">
<style type="text/css">
	.st0{fill:#D11216;}
	.st1{fill:#000100;}
	.st2{fill:#E9DC32;}
	.st3{fill:#E63534;}
</style>
<g id="XMLID_2_">
	<g>
		<path class="st0" d="M147.9,44.3c5.5-0.3,5.4-1.5,5.5-12.2c0.1-6.5,7.7-8.7,14.6-6.6c7.6,2.3,8,2.4,12.1,2.3
			c10.8-0.3,9,2.8,7.7,5.2c-3.3,6-8.1,17.4-12.3,25.2c-3.3,6.2-12.5,3.4-15.2,4c-2.6,0.5-0.9,5.4,0.3,6.7c2,2.2,4.3-0.1,8.8,0.6
			c1.2,0.2,4.6,1.2,6.1,5.3c1.9,5.2,1.3,18.7,5.9,38.1c5.3,22.5,17.9,22,17.1,24.9c-1,3.8-16.7,5.1-33.5-25.1
			c-6-10.8,0.4-11.5,4-13.8c2.5-1.7,6.3-2.8,1.8-7.5c-1.3-1.3-31-9.3-25.4-15.8c2.7-3.2,5.2,5.7,11.3,2.5c1.8-1-0.8-4.8-3.6-6.3
			c-2.5-1.4-11.2-7.4-16.2-11.7c-3.6-3.2-9.9-8.4-12.3-9.3c-1.3-0.5-1.4-4,0.1-4.2c2.9-0.3,8.7,0,8.4-3.1
			c-0.9-7.9-14.8-10.4-18.8-9.9c-5.3,0.7-13.6,10.9-11.4-2.6c0.8-5.3,6.8-15,22.5-8.8c4.3,1.7,11.1,5.9,15.3,8.9
			C148.4,36.3,141.1,44.7,147.9,44.3z M158.1,38.6c-2.3,7.9-1,15.2,1.2,15.9c5,1.6,5.6-0.9,6.7-5.3c1.1-4.5,10.3-10.9,7.5-14.4
			C170.7,31.4,160.5,30.7,158.1,38.6z"/>
		<path class="st1" d="M173.5,34.9c2.8,3.5-6.4,9.9-7.5,14.4c-1.1,4.5-1.7,7-6.7,5.3c-2.2-0.7-3.5-8-1.2-15.9
			C160.5,30.7,170.7,31.4,173.5,34.9z"/>
		<path class="st0" d="M180.9,185.2c3.6,2.6,2.9,8.4-3.7,2.8c-8.5-7.3-6.8-14.6-12.5-19c-1.2-1-3.6-1-4.9,0.5
			c-4-1.3-3.8-8.6-3.8-8.6l-0.1,0c0.8-13.9-0.5-22.1-2.7-23c-2.8-1.1-6.9-1.2-5.6-4.6c0.8-2.2,6.1-5.5,8.3-5.3c3,0.2,3.3,3,8,8.3
			c5,5.6,8.5,8.4,8.8,21c0.3,9.1,1.1,16,1.6,18C175,177.1,178.2,183.2,180.9,185.2z"/>
		<path class="st0" d="M157.9,208.4c7.8,10.2,12.8,12.3,10.9,14.6c-1.7,2-5.9,1-10.8-2.1c-5-3-8.1-5.3-8.8-7.7
			c-1.1-3.8-0.1-5.2,0.3-8.9c0.1-1.2,0.3-2.3,0.5-3.6c3.1,0.7,5,1.4,6.1,1.9C156.1,204.5,156.5,206.7,157.9,208.4z"/>
		<path class="st0" d="M159,173.6c-1.3-1.3-2.9-2.2-3.9-2.8c0.4-3.6,0.7-7,0.9-10.1l0.1,0c0,0-0.2,7.4,3.8,8.6
			C159.1,170.3,158.6,171.7,159,173.6z"/>
		<path class="st0" d="M154.7,174.3c0.1-1.2,0.3-2.3,0.4-3.4c1,0.5,2.6,1.5,3.9,2.8c0.2,1.1,0.7,2.3,1.5,3.8
			c2.3,4.1,5.6,8.7,7.9,12.9c0.6,1,3,5.8,3.1,6.1c2.5,4.5,3.3,9.3-2.7,8.6c-3.3-0.4-4.5-3.7-6.9-5.7c-2.1-1.8-4.9-2.4-5.5-0.4
			c0,0.2-0.1,0.4-0.2,0.7c-3.3-0.5-4.6-3.2-5.1-4.9C152.2,190,153.5,183.8,154.7,174.3z"/>
		<path class="st1" d="M156.2,199.7c0.1-0.3,0.1-0.5,0.2-0.7c0.6-2.1,3.4-1.5,5.5,0.4c2.4,2.1,3.6,5.4,6.9,5.7
			c6,0.7,5.2-4.1,2.7-8.6c-0.1-0.3-2.5-5-3.1-6.1c-2.3-4.3-5.6-8.8-7.9-12.9c-0.8-1.5-1.3-2.7-1.5-3.8c-0.4-2,0-3.4,0.8-4.2
			c1.3-1.4,3.7-1.4,4.9-0.5c5.6,4.4,4,11.8,12.5,19c6.6,5.6,7.3-0.2,3.7-2.8c-2.7-2-5.9-8.1-6.4-10.1c-0.5-2-1.4-8.9-1.6-18
			c-0.4-12.6-3.8-15.3-8.8-21c-4.7-5.3-5-8.1-8-8.3c-2.2-0.1-7.5,3.1-8.3,5.3c-1.3,3.5,2.7,3.5,5.6,4.6c2.2,0.9,3.5,9,2.7,23
			c-0.2,3.1-0.5,6.4-0.9,10.1c-0.1,1.1-0.3,2.2-0.4,3.4c-1.2,9.5-2.5,15.7-3.5,20.5c-0.5,2.2-0.9,4.2-1.3,6
			c-0.2,1.2-0.4,2.4-0.5,3.6c-0.4,3.8-1.4,5.1-0.3,8.9c0.7,2.4,3.8,4.7,8.8,7.7c5,3,9.2,4.1,10.8,2.1c1.9-2.4-3.1-4.4-10.9-14.6
			c-1.3-1.7-1.7-3.9-1.8-5.8C156,201.5,156.1,200.4,156.2,199.7z M119,48.3c2.3-0.7,1.1-2.4,1.1-3.8c0-1.6,2.2-2.3,1.9-3.5
			c-0.5-1.8-3.2,0.6-5.7,2.2C114.2,44.5,114.4,49.7,119,48.3z M124.7,46.5c-1.4,0.2-1.4,3.7-0.1,4.2c2.4,0.9,8.7,6.1,12.3,9.3
			c5,4.4,13.7,10.3,16.2,11.7c2.9,1.6,5.5,5.4,3.6,6.3c-6.1,3.2-8.6-5.7-11.3-2.5c-5.6,6.5,24.1,14.5,25.4,15.8
			c4.4,4.6,0.7,5.8-1.8,7.5c-3.6,2.4-10,3.1-4,13.8c16.8,30.2,32.5,28.9,33.5,25.1c0.8-2.9-11.8-2.4-17.1-24.9
			c-4.5-19.4-4-32.9-5.9-38.1c-1.5-4-4.9-5.1-6.1-5.3c-4.5-0.7-6.8,1.6-8.8-0.6c-1.2-1.3-2.9-6.2-0.3-6.7c2.6-0.6,11.8,2.2,15.2-4
			c4.2-7.8,9-19.2,12.3-25.2c1.3-2.4,3.1-5.5-7.7-5.2c-4.1,0.1-4.5,0-12.1-2.3c-6.9-2.1-14.5,0.1-14.6,6.6
			c-0.2,10.6-0.1,11.9-5.5,12.2c-6.8,0.4,0.5-8-7.2-13.4c-4.2-2.9-11-7.2-15.3-8.9c-15.8-6.2-21.7,3.4-22.5,8.8
			c-2.2,13.6,6.1,3.3,11.4,2.6c4-0.5,17.9,2,18.8,9.9C133.5,46.5,127.6,46.2,124.7,46.5z M59.4,183.6c0,0-2.7,6.3,2.9,6.9
			c4.4,0.5,2-6.5,1.3-7.4C62.9,182.2,60.3,181.9,59.4,183.6z M80.8,188.9c-2.5,1.6-5.3,4.8-8.3,6.8c-2.6,1.6-5.4,2.4-8.3,0.4
			c-2.8-1.9-5.6-0.2-7.1,2.6c-1,1.9-1.4,4.5-13.7,11.2c-4.9,2.7-6,8,6.1,9.2c2.8,0.3,7.8,5,11.4,3c3.6-2,5.8-10.4,10.2-16.6
			c1.8-2.5,3.6-4.7,5.2-6.6c2.6-3,4.9-5,5.9-5.9c0.1-0.1,0.3-0.2,0.4-0.3c1.6-1.2,5.6-0.6,6.5,1.5c1.3,3.3-6.6,3-8.1,16.4
			c-0.8,6.9-1.6,21.3,6.1,20.5c2.6-0.3,4-8.3,4.9-9.9c0.2-0.4,1.9-5,7.2-13.2c3.6-5.5-2.5-13.2,1.4-13.6c2.1-0.3,3.3,0.4,4,1.7
			c0.5,0.8,0.8,1.9,1,3.2c0.3,1.6,0.4,3.5,0.6,5.6c0.9,8.5,2.9,28.2,11.1,26.7c2.1-0.4,4.4-2.6,5.2-6.6c1.2-5.7,4-7.5,6.3-11.1
			c3.7-5.7,1.9-13.3,0.9-15.1c-2.9-5.8,2.4-5.4,3.1-7.2c1.8-4.2-0.6-10.4-4.4-5.5c-3,3.7-5,9.5-5.6,10.4c-5,7.2-5.5,9.1-7.6,9.4
			c-0.9,0.2-3,0.6-3.9-3.9c-0.3-1.4-1.1-3.3-2-5.3c-0.7-1.4-1.5-2.9-2.1-4.1c-0.8-1.5-1.6-2.7-1.9-3.2c-1.6-2.5-2.6-4.7-2.9-5.5
			c-1.5-4.3-7.4-2-9.4,0.7c-1.8,2.3-5.2,1.6-10.6,3.2C81.9,188.2,81.4,188.5,80.8,188.9z M65.2,60.8c-4.1,1.9-5.2,4.6-5.2,5.6
			c0.1,2.3,6,3.5,8.9,1.3c1.9-1.4,5.9-4.8,8.8-4.6c3.3,0.2,4.2-1.5,6.1-2.6c6.5-3.5,12.3-4.7,15.9-0.1c3,3.7,4.9,16.9,6.4,22.2
			c0.6,1.9,4.8,12,0.4,14.3c-4.4,2.3-2.6,6.3,0.4,6c4.1-0.5,5.6-6,6-7.7c2.2-9.5-4.4-22.8-2-26.1c2.4-3.4,3.9-3.9,3.4-8.5
			c-0.6-5.6,0.8-9-3.3-10.2c-3.4-1,1.6-6.2-2.8-6.3c-11.7-0.4-11.1-4.2-15.3-8.1c-6.5-6.1-25.8-6.4-34.2,0.6
			c-2.9,2.5-2.2,6.8-0.3,6.9s5.5-1.1,7.7-3.7c2.1-2.6,13.2-4.3,14.6-2.2c1.3,2.2-0.3,5.3-5.4,6c-12.4,1.8-16,12.9-11.2,12.8
			c12.8-0.4,13.5-1.6,13.7,0.8C78.1,59,71.2,58.1,65.2,60.8z M34.1,74.1c-10.9-6-7.7-10.8-11.2-8.7c-3.4,2.1-1.8,12.6,5.9,22.2
			c5.6,7,17.3,10.5,21.7,11.3c4.4,0.8,13.8-2.6,14.8-6.3c1.6-5.7-2.5-6.6,0.3-9.4c1-0.9,2.1-1.9,5.3-2.1c4.8-0.3-0.3,6.1,13.6,13.6
			c18.5,9.9,23.4-5,9.6-19c-2.3-2.3-7.6-3.4-12.3-3c-2.7,0.2-11.4,1.5-13.1,3.1c-3.3,3.2-17.3,3.7-22.4,3.4
			C41.3,78.9,37.8,76.1,34.1,74.1z M24.8,52.3c2.9,22,24.8,23.3,28.7,21.4c5.4-2.7,3.5-23.5,0.1-29.4c-5.4-9.5,3.1-16.4,4.3-16.6
			c11.1-2.4,11.9-1.1,21.8-2.2c8-0.9,15.6-4,15.6-4s6-6.6,10.8-7.7c19.3-4.1,18.7,1.1,18.7,1.1s6.5,3.3,15.5,8.9
			c7.2,4.4,8.5,0.3,9-1.7s8.1-6.2,14.6-4.5c7.2,2,23,5.8,27.7,2.8c6.4-4,8.3-6.7,11.9-8.2c15.5-6.6,15.9,5.6,9.7,7
			c-6.2,1.4-10.1,1.6-13.9,3.9s-18.5,34.9-17.4,43.9c1.5,13.3,5.6,60.4,22.6,67.6c27.6,11.5,23.1,20,16.7,17.1
			c-5-2.2-10.8-6-21.6-5.2c-1.8,0.1-15.2-10.2-18.7-5.6c-3.5,4.6,0.1,29.4,0.1,29.4s1.3,12.1,11.1,19.8
			c14.5,11.4,23.2,19.9,22.6,23.5c-1,6.9-13.5-8.7-28.8-15.1c-9.9-4.1-8.1,0.6-6.7,1.9c5.2,4.9,13.9,7.6,17.3,11
			c19.9,19.8,6.4,17.1,5.1,17.2c-0.3,0-12.7-11.3-16.7-12.8c-14.9-5.7-14.3,0.1-12.9,0.9c5.7,3.4,8.2,6.7,11.9,8.8
			c7.9,4.4,15.3,13.6,7.1,14.4c-4,0.4-6.2-4.3-8.1-6.1c-3-2.8-12.8-3.1-10.6,1.1c2.2,4.2,7.6,14.6,7.7,18.7c0.3,8-5.7,10.1-8.8,4.6
			c-1.3-2.2-5.1-10.2-12.1-18.5c-7.7-8.9-16.4-14.8-19.5-14c-9.3,2.3-5.8,30.3-15.5,30c-4.6-0.2-3.9-5.6-8.1-11.4
			c-4.7-6.4-5.8-10.3-12.7-10.6c-5.7-0.2-6.6,17-11.6,17.4c-5,0.3-11-16.7-17.3-19.5c-1.6-0.7-3.2,1.2-5,4.3
			c-1.5,2.7-2.5,6.1-6.6,6.3c-4.1,0.2-5.6-4.5-8.9-7.8c-4-4-9.1-7.4-11.2-7.4c-11.4,0-18-1.4-18-1.4s-12.8,5.6-10.1-5.5
			c4.3-18-9.3-15.2-8.2-22.4c1.1-7.2,8.8-4.4,7.4-11.2c-1.1-5.3,1.3-6,3.2-9.6c0.9-1.8,5.1-5.1,4.2-18.2c-0.2-2.8,0.9-5.1,3.4-11.3
			c1.6-3.9,7.1-9.1,5.2-10.4c-15.3-10.5-20.7-18.6-14.9-21.6c3.1-1.6,13,4.1,23.9,2c10.3-2,14.4-14.8,9.1-14.7
			C12,103.2,12.3,60.7,15.3,51.5C18.4,42.4,24.1,47.4,24.8,52.3z M45.8,199.5c4-2.2,12.2-10.9,10-13c-2.2-2.1-10.7,3.5-15.6,4.9
			c-4.3,1.2-6.7-2.8-3.5-8.2c1.6-2.8,7.2-7.1,7-9.2c-0.3-2.2-7.6-1.1-10.9,0c-3.3,1.1-8,4-9.4,6.3c-1.1,1.7,0.4,2.1,0.4,4.7
			c0.1,4.9-6.2,8.7-5.5,12.6c0.8,5.1,7.1-1.3,12.1,2.7C32.1,201.8,43.4,200.8,45.8,199.5z M147.8,155.2c0.2-1.1,1.6-7.9,1.1-10.6
			c-0.8-3.6-3.9-3.4-5.3-6.6c-1-2.1-2.5-6.9-6.7-4c-5.9,4.1,15.7,6.8,5.8,16.5c-1,1-2.7,1.8-4.8,1.9c-2.7,0.1-6.6-1.6-8.1,1.6
			c-1.6,3.5,1.3,4.6,3,6.2c1.8,1.6,1.8,11.9,3.4,15.8c1.2,2.8,5.1,5.8,6.7,2.3c0.8-1.9-0.1-4.9,0.6-9.3
			C143.9,165.5,147,159.8,147.8,155.2z M139.4,106.1c2.1,3,8.2,1.3,4.7-3.7c-1.2-1.7-4.9-7.2-8.5-7.7c-3.7-0.5-4.4-2.3-4.5-4
			c-0.3-3.8,6.3-3.3,8.2-2.5c5.1,2.1,5.6-2.6,0.1-7c-1.5-1.2-3.8-3.6-6.4-5.9c-4-3.6-5.6-4.7-5.8-6c-0.6-3.3-0.5-2.8,2.7-4.1
			c4.9-2-8.7-15.5-9.9-8.6c0.3,6.1,0.3,8.3,0.6,10.9c1,8.8-2.5,3.7-0.2,28.2c0.4,4.1-4.7,13.9-15.3,14.6c-7.6,0.5-13.4-1.8-17.6-2.1
			c-41.7-2.4-32,12.3-43.9,15.2c-8.8,2.2-11.2,0.8-14.5,0.6c-2.9-0.3-9.8,0.7-3.3,4.6c8.4,5,16,5.7,22.5,3.7
			c6.9-2.2,12.9-12.3,19.5-13.8c4.3-0.9,12.6-0.9,12.7,2.5c0.2,6.1-0.7,11.1,6,9.4c3.7-0.9,0.1-2.9,7.4-4
			c11.2-1.7,19.2,11.9,24.2,13.3c2.7,0.8,6.1-2.3-2.3-9.1c-3.4-2.8-3-5.4-3.3-8.7c-0.3-2.6,2.6-5,5.1-5c5.5-0.1,3.8,3.3,12.8,5.6
			c6.5,1.6,8,0.2,6.5-2.5c-1.5-2.8-6.2-4.6-6.5-8.5c-0.4-5,0.8-6.6,0.8-6.6S135.3,100.2,139.4,106.1z M121.4,173.1
			c0.7-3,2.4-6.4,1.4-13.2c-1-6.8-6.8-13.4-10.7-12.7c-5.3,0.9-3.9,7.2-3.5,8.1c1.5,3.3,2.4,7.2,1.6,10.7c-0.6,3.3-1.4,5.8,0.1,10.8
			c1.5,4.8,0.4,11.1,5.6,10.3c3.3-0.5,2.5-4.7,4-8.2C121.4,175.4,121.1,174.3,121.4,173.1z M105.9,144.1c1.4-2.2-1.8-4.5-4.7-4.1
			c-3.4,0.5-2.1,5.8-6.6,5.7c-4.3-0.1-6.3,0-7.5,2.4c-1,1.9-1.9,6.8-1.9,6.8s-4.7,13.2-10.2,21.1c-4,5.7,0.6,7.2,4.3,5.2
			c0-0.1,7.4-6,14.4-13.3c2.8-3,5.8-5.6,8-10.1S101.4,151,105.9,144.1z M73,101.2c3.1,0.9,4-1.3,2.6-2.4c-1.3-1.1-1.3-1.1-2.5-1.3
			C71.3,97.2,70.4,100.4,73,101.2z M70.2,163c6.2-7.1,11.8-14.3,9.3-16.2c-3.4-2.6-6.3-0.5-15.2,0c-5.6,0.3-6.3-0.6-8.9-1.4
			c-2.6-0.8-12.2-0.6-16.7,1.2c-4.5,1.8-7.9,3.2-9.4,5.7c-6.2,10.4-2.1,14.9,1.3,15.3c3.8,0.5,6.4-0.1,11.3-1.2
			c3.7-0.9,7.4-6.8,10.5-9.6c11-10.1,9.8,0.9,3.3,11.1c-3.8,6,0.3,7.7,2.7,5.8S65.1,168.9,70.2,163z M74.5,127.7
			c3.1-3.5-3.2-5.2-4.6-3c-3.4,5.2-5.4,1.5-6.9,4.9c-1.5,3.4,3.8,6.5,7.1,2.5C70.9,131.1,73.9,128.4,74.5,127.7z"/>
		<path class="st0" d="M151.2,194.8c0.5,1.7,1.8,4.4,5.1,4.9c-0.1,0.7-0.2,1.8-0.2,3c-1.1-0.5-3-1.1-6.1-1.9
			C150.3,199,150.7,197,151.2,194.8z"/>
		<path class="st0" d="M144.1,102.4c3.5,5-2.6,6.7-4.7,3.7c-4.2-5.9-8.4-1.5-8.4-1.5s-1.2,1.6-0.8,6.6c0.3,3.9,5,5.7,6.5,8.5
			c1.5,2.8,0,4.2-6.5,2.5c-9-2.3-7.3-5.7-12.8-5.6c-2.5,0-5.4,2.4-5.1,5c0.3,3.3-0.1,5.9,3.3,8.7c8.4,6.9,5,9.9,2.3,9.1
			c-4.9-1.4-12.9-15-24.2-13.3c-7.3,1.1-3.7,3.1-7.4,4c-6.7,1.7-5.9-3.3-6-9.4c-0.1-3.4-8.4-3.4-12.7-2.5
			c-6.6,1.4-12.6,11.5-19.5,13.8c-6.5,2.1-14,1.4-22.5-3.7c-6.5-3.9,0.5-4.8,3.3-4.6c3.3,0.3,5.7,1.6,14.5-0.6
			c11.9-2.9,2.2-17.6,43.9-15.2c4.2,0.3,10,2.6,17.6,2.1c10.6-0.7,15.7-10.5,15.3-14.6c-2.3-24.5,1.3-19.3,0.2-28.2
			c-0.3-2.7-0.3-4.8-0.6-10.9c1.2-6.8,14.8,6.6,9.9,8.6c-3.2,1.3-3.3,0.8-2.7,4.1c0.2,1.2,1.8,2.4,5.8,6c2.6,2.3,4.9,4.7,6.4,5.9
			c5.5,4.4,5,9.1-0.1,7c-1.9-0.8-8.5-1.3-8.2,2.5c0.1,1.7,0.8,3.5,4.5,4C139.2,95.2,142.9,100.7,144.1,102.4z"/>
		<path class="st0" d="M148.8,144.6c0.6,2.7-0.9,9.6-1.1,10.6c-0.8,4.6-3.8,10.3-4.4,13.8c-0.7,4.3,0.2,7.4-0.6,9.3
			c-1.5,3.5-5.5,0.4-6.7-2.3c-1.6-3.9-1.6-14.2-3.4-15.8c-1.7-1.6-4.6-2.7-3-6.2c1.5-3.3,5.4-1.5,8.1-1.6c2.1-0.1,3.8-0.8,4.8-1.9
			c9.9-9.7-11.6-12.4-5.8-16.5c4.2-2.9,5.7,1.9,6.7,4C144.9,141.2,148,140.9,148.8,144.6z"/>
		<path class="st2" d="M122,41c0.3,1.2-1.9,1.9-1.9,3.5c0,1.4,1.2,3-1.1,3.8c-4.6,1.4-4.8-3.8-2.7-5.1C118.8,41.6,121.5,39.2,122,41
			z"/>
		<path class="st0" d="M128.6,186.2c3.9-4.9,6.3,1.3,4.4,5.5c-0.7,1.7-6.1,1.4-3.1,7.2c0.9,1.8,2.7,9.4-0.9,15.1
			c-2.3,3.6-5.1,5.4-6.3,11.1c-0.8,4-3.1,6.2-5.2,6.6c-8.3,1.5-10.2-18.2-11.1-26.7c-0.2-2-0.3-3.9-0.6-5.6c0.5-0.7,1.8-2.5,3.8-2.4
			c0.9,1.9,1.7,3.9,2,5.3c0.9,4.6,3,4.1,3.9,3.9c2.2-0.4,2.6-2.2,7.6-9.4C123.6,195.7,125.6,189.9,128.6,186.2z"/>
		<path class="st0" d="M111.1,50.4c4.1,1.2,2.7,4.6,3.3,10.2c0.5,4.6-1,5.2-3.4,8.5c-2.4,3.4,4.2,16.6,2,26.1
			c-0.4,1.7-1.9,7.2-6,7.7c-2.9,0.3-4.7-3.7-0.4-6c4.4-2.3,0.2-12.5-0.4-14.3c-1.6-5.3-3.5-18.4-6.4-22.2c-3.6-4.6-9.4-3.4-15.9,0.1
			c-1.9,1-2.8,2.8-6.1,2.6c-2.8-0.2-6.9,3.2-8.8,4.6c-2.9,2.2-8.8,1.1-8.9-1.3c0-1,1.1-3.7,5.2-5.6c6-2.8,12.9-1.8,12.8-3.7
			c-0.1-2.4-0.9-1.2-13.7-0.8c-4.8,0.1-1.2-10.9,11.2-12.8c5-0.7,6.7-3.8,5.4-6c-1.3-2.2-12.4-0.4-14.6,2.2
			c-2.1,2.6-5.7,3.8-7.7,3.7S56,39,58.9,36.5c8.3-7,27.6-6.7,34.2-0.6c4.1,3.9,3.6,7.7,15.3,8.1C112.7,44.2,107.8,49.4,111.1,50.4z"
			/>
		<path class="st0" d="M122.7,159.9c1,6.8-0.7,10.2-1.4,13.2c-0.3,1.2,0,2.3-1.5,5.9c-1.4,3.5-0.7,7.7-4,8.2
			c-5.2,0.8-4-5.5-5.6-10.3c-1.6-5-0.8-7.5-0.1-10.8c0.7-3.6-0.1-7.4-1.6-10.7c-0.5-1-1.9-7.3,3.5-8.1
			C115.9,146.6,121.7,153.1,122.7,159.9z"/>
		<path class="st0" d="M101.2,140c2.9-0.4,6.2,1.9,4.7,4.1c-4.6,6.9-2,9.2-4.3,13.7s-5.3,7.1-8,10.1c-6.9,7.4-14.4,13.3-14.4,13.3
			c-3.7,2.1-8.4,0.5-4.3-5.2c5.6-7.9,10.2-21.1,10.2-21.1s1-4.9,1.9-6.8c1.2-2.4,3.2-2.5,7.5-2.4C99.1,145.8,97.8,140.5,101.2,140z"
			/>
		<path class="st0" d="M107.3,192.8c0.7,1.2,1.4,2.7,2.1,4.1c-1.9,0-3.3,1.7-3.8,2.4c-0.2-1.3-0.5-2.4-1-3.2
			C107.3,196.8,107.3,193.2,107.3,192.8z"/>
		<path class="st3" d="M94.1,75.7c13.8,14,8.9,28.9-9.6,19c-13.9-7.4-8.8-13.9-13.6-13.6c-3.2,0.2-4.4,1.2-5.3,2.1
			c-2.8,2.8,1.3,3.7-0.3,9.4c-1.1,3.7-10.4,7.1-14.8,6.3c-4.4-0.8-16.1-4.3-21.7-11.3c-7.7-9.6-9.2-20.1-5.9-22.2
			c3.4-2.1,0.3,2.7,11.2,8.7c3.6,2,7.1,4.8,12.2,5.1c5.1,0.3,19.1-0.2,22.4-3.4c1.7-1.6,10.3-2.9,13.1-3.1
			C86.5,72.3,91.8,73.3,94.1,75.7z"/>
		<path class="st0" d="M75.7,98.8c1.3,1.1,0.4,3.3-2.6,2.4c-2.6-0.8-1.7-4,0.1-3.7C74.4,97.7,74.3,97.7,75.7,98.8z"/>
		<path class="st0" d="M79.5,146.8c2.5,2-3.1,9.2-9.3,16.2c-5.1,5.8-9.5,8.9-11.9,10.7s-6.5,0.2-2.7-5.8c6.5-10.2,7.7-21.2-3.3-11.1
			c-3.1,2.8-6.8,8.8-10.5,9.6c-4.9,1.1-7.5,1.7-11.3,1.2c-3.3-0.5-7.5-5-1.3-15.3c1.5-2.5,4.9-3.9,9.4-5.7c4.4-1.8,14-2,16.7-1.2
			c2.6,0.8,3.4,1.7,8.9,1.4C73.2,146.3,76.1,144.2,79.5,146.8z"/>
		<path class="st0" d="M82.5,188.1c5.4-1.6,8.8-0.9,10.6-3.2c2.1-2.7,8-5.1,9.4-0.7c0.3,0.8,1.3,3,2.9,5.5c0.4,0.5,1.1,1.7,1.9,3.2
			c0,0.4,0,4-2.6,3.3c-0.7-1.3-2-1.9-4-1.7c-4,0.5,2.2,8.2-1.4,13.6c-5.4,8.2-7,12.8-7.2,13.2c-0.9,1.6-2.4,9.7-4.9,9.9
			c-7.7,0.8-6.9-13.7-6.1-20.5c1.5-13.4,9.4-13.1,8.1-16.4c-0.9-2.1-4.9-2.7-6.5-1.5c-0.1,0.1-0.2,0.2-0.4,0.3
			c-2.2-1.6-2.1-3-1.3-4.1C81.4,188.5,81.9,188.2,82.5,188.1z"/>
		<path class="st0" d="M80.8,188.9c-0.7,1.1-0.8,2.5,1.3,4.1c-1.1,0.9-3.3,3-5.9,5.9c-0.4-1.8-2.3-2.6-3.7-3.3
			C75.5,193.7,78.3,190.5,80.8,188.9z"/>
		<path class="st0" d="M69.9,124.7c1.5-2.2,7.7-0.5,4.6,3c-0.6,0.7-3.6,3.4-4.4,4.4c-3.3,4-8.6,0.9-7.1-2.5
			C64.5,126.2,66.5,129.9,69.9,124.7z"/>
		<path class="st0" d="M72.5,195.6c1.4,0.7,3.3,1.5,3.7,3.3c-1.6,1.9-3.4,4.1-5.2,6.6c-4.4,6.2-6.6,14.6-10.2,16.6
			c-3.6,2-8.6-2.8-11.4-3c-12.1-1.2-11.1-6.5-6.1-9.2c12.4-6.7,12.7-9.3,13.7-11.2c1.5-2.9,4.3-4.5,7.1-2.6
			C67.1,198,69.9,197.3,72.5,195.6z"/>
		<path class="st0" d="M63.6,183.1c0.7,0.9,3.1,7.9-1.3,7.4c-5.6-0.6-2.9-6.9-2.9-6.9C60.3,181.9,62.9,182.2,63.6,183.1z"/>
		<path class="st0" d="M55.7,186.5c2.2,2.1-6,10.8-10,13c-2.4,1.3-13.7,2.3-15.5,0.8c-5-4-11.3,2.4-12.1-2.7
			c-0.6-3.9,5.6-7.7,5.5-12.6c0-2.6-1.4-2.9-0.4-4.7c1.4-2.3,6.1-5.2,9.4-6.3c3.3-1.1,10.7-2.2,10.9,0c0.3,2.1-5.3,6.4-7,9.2
			c-3.2,5.5-0.8,9.4,3.5,8.2C45.1,190.1,53.5,184.4,55.7,186.5z"/>
	</g>
	<g>
	</g>
</g>
<g>
</g>
<g>
</g>
<g>
</g>
<g>
</g>
<g>
</g>
<g>
</g>
<g>
</g>
<g>
</g>
<g>
</g>
<g>
</g>
<g>
</g>
<g>
</g>
<g>
</g>
<g>
</g>
<g>
</g>
</svg>
