<svg xmlns="http://www.w3.org/2000/svg" viewBox="0 0 180 176"><defs><style>.a{fill:#e90600;}.b{fill:#fff;}</style></defs><title>wip-tag</title><polygon class="a" points="0 0 180 0 0 176 0 0"/><path class="b" d="M49,49.49,66.91,78.1l-2.77,2.77L62.9,82.12,41.73,69.62,54.14,90.88,51.51,93.5l-1.39,1.39L21.51,77l4.11-4.11,20.92,13.8-13-21.72,2.52-2.53,1-.94L58.74,74.54,44.85,53.61Z" transform="translate(-0.5 -0.5)"/><path class="b" d="M75.41,69.6,52.14,46.33l4.12-4.13L79.54,65.48Z" transform="translate(-0.5 -0.5)"/><path class="b" d="M75.62,24.75a9.7,9.7,0,0,1,5.57-.3A10.35,10.35,0,0,1,86,27.29a10.41,10.41,0,0,1,2.89,4.88,9,9,0,0,1-.42,5.4A15.72,15.72,0,0,1,84.78,43L80,47.83l8.6,8.6-4.14,4.14L61.17,37.29l8.93-8.93A14.42,14.42,0,0,1,75.62,24.75ZM83.7,35.38a5.34,5.34,0,0,0-1.78-3.9,6.41,6.41,0,0,0-2.52-1.59,5,5,0,0,0-2.94-.07,6.76,6.76,0,0,0-3,1.88l-4.8,4.79,8,8,4.79-4.79A6.45,6.45,0,0,0,83.7,35.38Z" transform="translate(-0.5 -0.5)"/></svg>